<svg width="5553" height="5004" viewBox="0 0 5553 5004" fill="none" xmlns="http://www.w3.org/2000/svg">
<rect width="5553" height="5004" rx="400" fill="#202020"/>
<path d="M387.168 3523L1212.55 1327.28H1555.13L726.861 3523H387.168Z" fill="white"/>
<circle cx="1813" cy="2502" r="320" fill="#F2F2F2"/>
<circle cx="2573" cy="2502" r="320" fill="#F2F2F2"/>
<circle cx="2573" cy="1742" r="320" fill="#F2F2F2"/>
<circle cx="1813" cy="3262" r="320" fill="#F2F2F2"/>
<path d="M4211.32 3523H3245.73V1392.33H4280.7C4541.86 1396.19 4726.88 1471.83 4835.78 1619.28C4901.31 1709.86 4934.07 1818.27 4934.07 1944.51C4934.07 2074.61 4901.31 2179.17 4835.78 2258.19C4799.16 2302.52 4745.19 2342.99 4673.88 2379.61C4782.77 2419.12 4864.69 2481.76 4919.62 2567.52C4975.51 2653.29 5003.45 2757.37 5003.45 2879.75C5003.45 3005.99 4971.65 3119.22 4908.05 3219.44C4867.58 3285.94 4816.98 3341.83 4756.27 3387.12C4687.85 3439.16 4606.91 3474.82 4513.43 3494.09C4420.92 3513.36 4320.21 3523 4211.32 3523ZM4201.2 2584.87H3670.7V3152.95H4193.97C4287.45 3152.95 4360.21 3140.42 4412.24 3115.37C4506.68 3069.11 4553.9 2980.46 4553.9 2849.4C4553.9 2738.57 4508.13 2662.45 4416.58 2621.01C4365.51 2597.88 4293.71 2585.83 4201.2 2584.87ZM4422.36 2178.68C4480.18 2143.99 4509.09 2081.84 4509.09 1992.21C4509.09 1892.96 4470.55 1827.43 4393.45 1795.63C4326.96 1773.46 4242.16 1762.38 4139.05 1762.38H3670.7V2232.17H4193.97C4287.45 2232.17 4363.58 2214.34 4422.36 2178.68Z" fill="white"/>
</svg>
